<mxfile>
    <diagram name="Page-1" id="c4acf3e9-155e-7222-9cf6-157b1a14988f">
        <mxGraphModel dx="1072" dy="575" grid="1" gridSize="10" guides="1" tooltips="1" connect="1" arrows="1" fold="1" page="1" pageScale="1" pageWidth="850" pageHeight="1100" background="#191919" math="0" shadow="0">
            <root>
                <mxCell id="0"/>
                <mxCell id="1" parent="0"/>
                <mxCell id="evxAqaeePZ5Ky6cXRK0g-5" value="Contessa&#10;" style="swimlane;fontStyle=1;align=center;verticalAlign=top;childLayout=stackLayout;horizontal=1;startSize=26;horizontalStack=0;resizeParent=1;resizeParentMax=0;resizeLast=0;collapsible=1;marginBottom=0;" parent="1" vertex="1">
                    <mxGeometry x="240" y="40" width="160" height="62" as="geometry"/>
                </mxCell>
                <mxCell id="evxAqaeePZ5Ky6cXRK0g-7" value="" style="line;strokeWidth=1;fillColor=none;align=left;verticalAlign=middle;spacingTop=-1;spacingLeft=3;spacingRight=3;rotatable=0;labelPosition=right;points=[];portConstraint=eastwest;" parent="evxAqaeePZ5Ky6cXRK0g-5" vertex="1">
                    <mxGeometry y="26" width="160" height="10" as="geometry"/>
                </mxCell>
                <mxCell id="evxAqaeePZ5Ky6cXRK0g-8" value="+ play_contessa(): void" style="text;strokeColor=none;fillColor=none;align=left;verticalAlign=top;spacingLeft=4;spacingRight=4;overflow=hidden;rotatable=0;points=[[0,0.5],[1,0.5]];portConstraint=eastwest;" parent="evxAqaeePZ5Ky6cXRK0g-5" vertex="1">
                    <mxGeometry y="36" width="160" height="26" as="geometry"/>
                </mxCell>
                <mxCell id="evxAqaeePZ5Ky6cXRK0g-9" value="Duke&#10;" style="swimlane;fontStyle=1;align=center;verticalAlign=top;childLayout=stackLayout;horizontal=1;startSize=26;horizontalStack=0;resizeParent=1;resizeParentMax=0;resizeLast=0;collapsible=1;marginBottom=0;" parent="1" vertex="1">
                    <mxGeometry x="240" y="442" width="160" height="60" as="geometry"/>
                </mxCell>
                <mxCell id="evxAqaeePZ5Ky6cXRK0g-11" value="" style="line;strokeWidth=1;fillColor=none;align=left;verticalAlign=middle;spacingTop=-1;spacingLeft=3;spacingRight=3;rotatable=0;labelPosition=right;points=[];portConstraint=eastwest;" parent="evxAqaeePZ5Ky6cXRK0g-9" vertex="1">
                    <mxGeometry y="26" width="160" height="8" as="geometry"/>
                </mxCell>
                <mxCell id="evxAqaeePZ5Ky6cXRK0g-12" value="+ play_duke(): void" style="text;strokeColor=none;fillColor=none;align=left;verticalAlign=top;spacingLeft=4;spacingRight=4;overflow=hidden;rotatable=0;points=[[0,0.5],[1,0.5]];portConstraint=eastwest;" parent="evxAqaeePZ5Ky6cXRK0g-9" vertex="1">
                    <mxGeometry y="34" width="160" height="26" as="geometry"/>
                </mxCell>
                <mxCell id="evxAqaeePZ5Ky6cXRK0g-13" value="Assassin&#10;" style="swimlane;fontStyle=1;align=center;verticalAlign=top;childLayout=stackLayout;horizontal=1;startSize=26;horizontalStack=0;resizeParent=1;resizeParentMax=0;resizeLast=0;collapsible=1;marginBottom=0;" parent="1" vertex="1">
                    <mxGeometry x="240" y="520" width="160" height="60" as="geometry"/>
                </mxCell>
                <mxCell id="evxAqaeePZ5Ky6cXRK0g-15" value="" style="line;strokeWidth=1;fillColor=none;align=left;verticalAlign=middle;spacingTop=-1;spacingLeft=3;spacingRight=3;rotatable=0;labelPosition=right;points=[];portConstraint=eastwest;" parent="evxAqaeePZ5Ky6cXRK0g-13" vertex="1">
                    <mxGeometry y="26" width="160" height="8" as="geometry"/>
                </mxCell>
                <mxCell id="evxAqaeePZ5Ky6cXRK0g-16" value="+ play_assassin(): void" style="text;strokeColor=none;fillColor=none;align=left;verticalAlign=top;spacingLeft=4;spacingRight=4;overflow=hidden;rotatable=0;points=[[0,0.5],[1,0.5]];portConstraint=eastwest;" parent="evxAqaeePZ5Ky6cXRK0g-13" vertex="1">
                    <mxGeometry y="34" width="160" height="26" as="geometry"/>
                </mxCell>
                <mxCell id="evxAqaeePZ5Ky6cXRK0g-17" value="Ambassador&#10;" style="swimlane;fontStyle=1;align=center;verticalAlign=top;childLayout=stackLayout;horizontal=1;startSize=26;horizontalStack=0;resizeParent=1;resizeParentMax=0;resizeLast=0;collapsible=1;marginBottom=0;" parent="1" vertex="1">
                    <mxGeometry x="240" y="120" width="160" height="60" as="geometry"/>
                </mxCell>
                <mxCell id="evxAqaeePZ5Ky6cXRK0g-19" value="" style="line;strokeWidth=1;fillColor=none;align=left;verticalAlign=middle;spacingTop=-1;spacingLeft=3;spacingRight=3;rotatable=0;labelPosition=right;points=[];portConstraint=eastwest;" parent="evxAqaeePZ5Ky6cXRK0g-17" vertex="1">
                    <mxGeometry y="26" width="160" height="8" as="geometry"/>
                </mxCell>
                <mxCell id="evxAqaeePZ5Ky6cXRK0g-20" value="+ play_ambassador(): void" style="text;strokeColor=none;fillColor=none;align=left;verticalAlign=top;spacingLeft=4;spacingRight=4;overflow=hidden;rotatable=0;points=[[0,0.5],[1,0.5]];portConstraint=eastwest;" parent="evxAqaeePZ5Ky6cXRK0g-17" vertex="1">
                    <mxGeometry y="34" width="160" height="26" as="geometry"/>
                </mxCell>
                <mxCell id="evxAqaeePZ5Ky6cXRK0g-21" value="Captain&#10;" style="swimlane;fontStyle=1;align=center;verticalAlign=top;childLayout=stackLayout;horizontal=1;startSize=26;horizontalStack=0;resizeParent=1;resizeParentMax=0;resizeLast=0;collapsible=1;marginBottom=0;" parent="1" vertex="1">
                    <mxGeometry x="240" y="360" width="160" height="60" as="geometry"/>
                </mxCell>
                <mxCell id="evxAqaeePZ5Ky6cXRK0g-23" value="" style="line;strokeWidth=1;fillColor=none;align=left;verticalAlign=middle;spacingTop=-1;spacingLeft=3;spacingRight=3;rotatable=0;labelPosition=right;points=[];portConstraint=eastwest;" parent="evxAqaeePZ5Ky6cXRK0g-21" vertex="1">
                    <mxGeometry y="26" width="160" height="8" as="geometry"/>
                </mxCell>
                <mxCell id="evxAqaeePZ5Ky6cXRK0g-24" value="+ play_captain(): void" style="text;strokeColor=none;fillColor=none;align=left;verticalAlign=top;spacingLeft=4;spacingRight=4;overflow=hidden;rotatable=0;points=[[0,0.5],[1,0.5]];portConstraint=eastwest;" parent="evxAqaeePZ5Ky6cXRK0g-21" vertex="1">
                    <mxGeometry y="34" width="160" height="26" as="geometry"/>
                </mxCell>
                <mxCell id="evxAqaeePZ5Ky6cXRK0g-38" value="Player" style="swimlane;fontStyle=1;childLayout=stackLayout;horizontal=1;startSize=26;fillColor=none;horizontalStack=0;resizeParent=1;resizeParentMax=0;resizeLast=0;collapsible=1;marginBottom=0;" parent="1" vertex="1">
                    <mxGeometry x="480" y="82" width="160" height="162" as="geometry"/>
                </mxCell>
                <mxCell id="evxAqaeePZ5Ky6cXRK0g-40" value="- name: string" style="text;strokeColor=none;fillColor=none;align=left;verticalAlign=top;spacingLeft=4;spacingRight=4;overflow=hidden;rotatable=0;points=[[0,0.5],[1,0.5]];portConstraint=eastwest;" parent="evxAqaeePZ5Ky6cXRK0g-38" vertex="1">
                    <mxGeometry y="26" width="160" height="26" as="geometry"/>
                </mxCell>
                <mxCell id="evxAqaeePZ5Ky6cXRK0g-41" value="- user_id: int" style="text;strokeColor=none;fillColor=none;align=left;verticalAlign=top;spacingLeft=4;spacingRight=4;overflow=hidden;rotatable=0;points=[[0,0.5],[1,0.5]];portConstraint=eastwest;" parent="evxAqaeePZ5Ky6cXRK0g-38" vertex="1">
                    <mxGeometry y="52" width="160" height="32" as="geometry"/>
                </mxCell>
                <mxCell id="K-ifluRERvhJS9VFlH-g-1" value="- alive: boole" style="text;strokeColor=none;fillColor=none;align=left;verticalAlign=top;spacingLeft=4;spacingRight=4;overflow=hidden;rotatable=0;points=[[0,0.5],[1,0.5]];portConstraint=eastwest;" parent="evxAqaeePZ5Ky6cXRK0g-38" vertex="1">
                    <mxGeometry y="84" width="160" height="26" as="geometry"/>
                </mxCell>
                <mxCell id="tcUG_68Ii-Lz_5LL-RTe-19" value="- hand_cards: str" style="text;strokeColor=none;fillColor=none;align=left;verticalAlign=top;spacingLeft=4;spacingRight=4;overflow=hidden;rotatable=0;points=[[0,0.5],[1,0.5]];portConstraint=eastwest;" parent="evxAqaeePZ5Ky6cXRK0g-38" vertex="1">
                    <mxGeometry y="110" width="160" height="26" as="geometry"/>
                </mxCell>
                <mxCell id="evxAqaeePZ5Ky6cXRK0g-52" value="-coins: int" style="text;strokeColor=none;fillColor=none;align=left;verticalAlign=top;spacingLeft=4;spacingRight=4;overflow=hidden;rotatable=0;points=[[0,0.5],[1,0.5]];portConstraint=eastwest;shadow=0;" parent="evxAqaeePZ5Ky6cXRK0g-38" vertex="1">
                    <mxGeometry y="136" width="160" height="26" as="geometry"/>
                </mxCell>
                <mxCell id="evxAqaeePZ5Ky6cXRK0g-57" value="Actions (Abstract)" style="swimlane;fontStyle=1;align=center;verticalAlign=top;childLayout=stackLayout;horizontal=1;startSize=26;horizontalStack=0;resizeParent=1;resizeParentMax=0;resizeLast=0;collapsible=1;marginBottom=0;" parent="1" vertex="1">
                    <mxGeometry x="-120" y="320" width="160" height="158" as="geometry"/>
                </mxCell>
                <mxCell id="K-ifluRERvhJS9VFlH-g-6" value="#- name: str&#10;" style="text;strokeColor=none;fillColor=none;align=left;verticalAlign=top;spacingLeft=4;spacingRight=4;overflow=hidden;rotatable=0;points=[[0,0.5],[1,0.5]];portConstraint=eastwest;" parent="evxAqaeePZ5Ky6cXRK0g-57" vertex="1">
                    <mxGeometry y="26" width="160" height="26" as="geometry"/>
                </mxCell>
                <mxCell id="K-ifluRERvhJS9VFlH-g-5" value="# action_name: str" style="text;strokeColor=none;fillColor=none;align=left;verticalAlign=top;spacingLeft=4;spacingRight=4;overflow=hidden;rotatable=0;points=[[0,0.5],[1,0.5]];portConstraint=eastwest;" parent="evxAqaeePZ5Ky6cXRK0g-57" vertex="1">
                    <mxGeometry y="52" width="160" height="26" as="geometry"/>
                </mxCell>
                <mxCell id="K-ifluRERvhJS9VFlH-g-4" value="# check_target: str" style="text;strokeColor=none;fillColor=none;align=left;verticalAlign=top;spacingLeft=4;spacingRight=4;overflow=hidden;rotatable=0;points=[[0,0.5],[1,0.5]];portConstraint=eastwest;" parent="evxAqaeePZ5Ky6cXRK0g-57" vertex="1">
                    <mxGeometry y="78" width="160" height="26" as="geometry"/>
                </mxCell>
                <mxCell id="K-ifluRERvhJS9VFlH-g-3" value="# coins_needed: int" style="text;strokeColor=none;fillColor=none;align=left;verticalAlign=top;spacingLeft=4;spacingRight=4;overflow=hidden;rotatable=0;points=[[0,0.5],[1,0.5]];portConstraint=eastwest;" parent="evxAqaeePZ5Ky6cXRK0g-57" vertex="1">
                    <mxGeometry y="104" width="160" height="26" as="geometry"/>
                </mxCell>
                <mxCell id="K-ifluRERvhJS9VFlH-g-2" value="# block: boole&#10;" style="text;strokeColor=none;fillColor=none;align=left;verticalAlign=top;spacingLeft=4;spacingRight=4;overflow=hidden;rotatable=0;points=[[0,0.5],[1,0.5]];portConstraint=eastwest;" parent="evxAqaeePZ5Ky6cXRK0g-57" vertex="1">
                    <mxGeometry y="130" width="160" height="26" as="geometry"/>
                </mxCell>
                <mxCell id="evxAqaeePZ5Ky6cXRK0g-60" value="" style="text;fillColor=none;align=left;verticalAlign=top;spacingLeft=4;spacingRight=4;overflow=hidden;rotatable=0;points=[[0,0.5],[1,0.5]];portConstraint=eastwest;strokeColor=#000000;" parent="evxAqaeePZ5Ky6cXRK0g-57" vertex="1">
                    <mxGeometry y="156" width="160" height="2" as="geometry"/>
                </mxCell>
                <mxCell id="K-ifluRERvhJS9VFlH-g-10" value="Coup&#10;" style="swimlane;fontStyle=1;align=center;verticalAlign=top;childLayout=stackLayout;horizontal=1;startSize=26;horizontalStack=0;resizeParent=1;resizeParentMax=0;resizeLast=0;collapsible=1;marginBottom=0;" parent="1" vertex="1">
                    <mxGeometry x="240" y="200" width="160" height="60" as="geometry"/>
                </mxCell>
                <mxCell id="K-ifluRERvhJS9VFlH-g-11" value="" style="line;strokeWidth=1;fillColor=none;align=left;verticalAlign=middle;spacingTop=-1;spacingLeft=3;spacingRight=3;rotatable=0;labelPosition=right;points=[];portConstraint=eastwest;" parent="K-ifluRERvhJS9VFlH-g-10" vertex="1">
                    <mxGeometry y="26" width="160" height="8" as="geometry"/>
                </mxCell>
                <mxCell id="K-ifluRERvhJS9VFlH-g-12" value="+ play_coup(): void" style="text;strokeColor=none;fillColor=none;align=left;verticalAlign=top;spacingLeft=4;spacingRight=4;overflow=hidden;rotatable=0;points=[[0,0.5],[1,0.5]];portConstraint=eastwest;" parent="K-ifluRERvhJS9VFlH-g-10" vertex="1">
                    <mxGeometry y="34" width="160" height="26" as="geometry"/>
                </mxCell>
                <mxCell id="K-ifluRERvhJS9VFlH-g-13" value="Foreign_aid&#10;" style="swimlane;fontStyle=1;align=center;verticalAlign=top;childLayout=stackLayout;horizontal=1;startSize=26;horizontalStack=0;resizeParent=1;resizeParentMax=0;resizeLast=0;collapsible=1;marginBottom=0;" parent="1" vertex="1">
                    <mxGeometry x="240" y="278" width="160" height="60" as="geometry"/>
                </mxCell>
                <mxCell id="K-ifluRERvhJS9VFlH-g-14" value="" style="line;strokeWidth=1;fillColor=none;align=left;verticalAlign=middle;spacingTop=-1;spacingLeft=3;spacingRight=3;rotatable=0;labelPosition=right;points=[];portConstraint=eastwest;" parent="K-ifluRERvhJS9VFlH-g-13" vertex="1">
                    <mxGeometry y="26" width="160" height="8" as="geometry"/>
                </mxCell>
                <mxCell id="K-ifluRERvhJS9VFlH-g-15" value="+ play_foreign_aid(): void" style="text;strokeColor=none;fillColor=none;align=left;verticalAlign=top;spacingLeft=4;spacingRight=4;overflow=hidden;rotatable=0;points=[[0,0.5],[1,0.5]];portConstraint=eastwest;" parent="K-ifluRERvhJS9VFlH-g-13" vertex="1">
                    <mxGeometry y="34" width="160" height="26" as="geometry"/>
                </mxCell>
                <mxCell id="K-ifluRERvhJS9VFlH-g-16" value="Income&#10;" style="swimlane;fontStyle=1;align=center;verticalAlign=top;childLayout=stackLayout;horizontal=1;startSize=26;horizontalStack=0;resizeParent=1;resizeParentMax=0;resizeLast=0;collapsible=1;marginBottom=0;" parent="1" vertex="1">
                    <mxGeometry x="240" y="600" width="160" height="60" as="geometry"/>
                </mxCell>
                <mxCell id="K-ifluRERvhJS9VFlH-g-17" value="" style="line;strokeWidth=1;fillColor=none;align=left;verticalAlign=middle;spacingTop=-1;spacingLeft=3;spacingRight=3;rotatable=0;labelPosition=right;points=[];portConstraint=eastwest;" parent="K-ifluRERvhJS9VFlH-g-16" vertex="1">
                    <mxGeometry y="26" width="160" height="8" as="geometry"/>
                </mxCell>
                <mxCell id="K-ifluRERvhJS9VFlH-g-18" value="+ play_income(): void" style="text;strokeColor=none;fillColor=none;align=left;verticalAlign=top;spacingLeft=4;spacingRight=4;overflow=hidden;rotatable=0;points=[[0,0.5],[1,0.5]];portConstraint=eastwest;" parent="K-ifluRERvhJS9VFlH-g-16" vertex="1">
                    <mxGeometry y="34" width="160" height="26" as="geometry"/>
                </mxCell>
                <mxCell id="tcUG_68Ii-Lz_5LL-RTe-5" value="" style="endArrow=classic;html=1;" parent="1" edge="1">
                    <mxGeometry relative="1" as="geometry">
                        <mxPoint x="50" y="400" as="sourcePoint"/>
                        <mxPoint x="230" y="400" as="targetPoint"/>
                    </mxGeometry>
                </mxCell>
                <mxCell id="tcUG_68Ii-Lz_5LL-RTe-6" value="Father" style="edgeLabel;resizable=0;html=1;align=center;verticalAlign=middle;" parent="tcUG_68Ii-Lz_5LL-RTe-5" connectable="0" vertex="1">
                    <mxGeometry relative="1" as="geometry"/>
                </mxCell>
                <mxCell id="tcUG_68Ii-Lz_5LL-RTe-7" value="" style="endArrow=classic;html=1;" parent="1" edge="1">
                    <mxGeometry relative="1" as="geometry">
                        <mxPoint x="50" y="400" as="sourcePoint"/>
                        <mxPoint x="230" y="310" as="targetPoint"/>
                    </mxGeometry>
                </mxCell>
                <mxCell id="tcUG_68Ii-Lz_5LL-RTe-8" value="Father" style="edgeLabel;resizable=0;html=1;align=center;verticalAlign=middle;" parent="tcUG_68Ii-Lz_5LL-RTe-7" connectable="0" vertex="1">
                    <mxGeometry relative="1" as="geometry"/>
                </mxCell>
                <mxCell id="tcUG_68Ii-Lz_5LL-RTe-9" value="" style="endArrow=classic;html=1;" parent="1" edge="1">
                    <mxGeometry relative="1" as="geometry">
                        <mxPoint x="50" y="400" as="sourcePoint"/>
                        <mxPoint x="230" y="460" as="targetPoint"/>
                    </mxGeometry>
                </mxCell>
                <mxCell id="tcUG_68Ii-Lz_5LL-RTe-10" value="Father" style="edgeLabel;resizable=0;html=1;align=center;verticalAlign=middle;" parent="tcUG_68Ii-Lz_5LL-RTe-9" connectable="0" vertex="1">
                    <mxGeometry relative="1" as="geometry"/>
                </mxCell>
                <mxCell id="tcUG_68Ii-Lz_5LL-RTe-11" value="" style="endArrow=classic;html=1;" parent="1" edge="1">
                    <mxGeometry relative="1" as="geometry">
                        <mxPoint x="50" y="400" as="sourcePoint"/>
                        <mxPoint x="230" y="550" as="targetPoint"/>
                    </mxGeometry>
                </mxCell>
                <mxCell id="tcUG_68Ii-Lz_5LL-RTe-12" value="Father" style="edgeLabel;resizable=0;html=1;align=center;verticalAlign=middle;" parent="tcUG_68Ii-Lz_5LL-RTe-11" connectable="0" vertex="1">
                    <mxGeometry relative="1" as="geometry"/>
                </mxCell>
                <mxCell id="tcUG_68Ii-Lz_5LL-RTe-13" value="" style="endArrow=classic;html=1;" parent="1" edge="1">
                    <mxGeometry relative="1" as="geometry">
                        <mxPoint x="50" y="400" as="sourcePoint"/>
                        <mxPoint x="230" y="230" as="targetPoint"/>
                    </mxGeometry>
                </mxCell>
                <mxCell id="tcUG_68Ii-Lz_5LL-RTe-14" value="Father" style="edgeLabel;resizable=0;html=1;align=center;verticalAlign=middle;" parent="tcUG_68Ii-Lz_5LL-RTe-13" connectable="0" vertex="1">
                    <mxGeometry relative="1" as="geometry"/>
                </mxCell>
                <mxCell id="tcUG_68Ii-Lz_5LL-RTe-15" value="" style="endArrow=classic;html=1;" parent="1" edge="1">
                    <mxGeometry relative="1" as="geometry">
                        <mxPoint x="50" y="400" as="sourcePoint"/>
                        <mxPoint x="230" y="160" as="targetPoint"/>
                    </mxGeometry>
                </mxCell>
                <mxCell id="tcUG_68Ii-Lz_5LL-RTe-16" value="Father" style="edgeLabel;resizable=0;html=1;align=center;verticalAlign=middle;" parent="tcUG_68Ii-Lz_5LL-RTe-15" connectable="0" vertex="1">
                    <mxGeometry relative="1" as="geometry"/>
                </mxCell>
                <mxCell id="tcUG_68Ii-Lz_5LL-RTe-17" value="" style="endArrow=classic;html=1;" parent="1" edge="1">
                    <mxGeometry relative="1" as="geometry">
                        <mxPoint x="50" y="400" as="sourcePoint"/>
                        <mxPoint x="230" y="80" as="targetPoint"/>
                    </mxGeometry>
                </mxCell>
                <mxCell id="tcUG_68Ii-Lz_5LL-RTe-18" value="Father" style="edgeLabel;resizable=0;html=1;align=center;verticalAlign=middle;" parent="tcUG_68Ii-Lz_5LL-RTe-17" connectable="0" vertex="1">
                    <mxGeometry relative="1" as="geometry"/>
                </mxCell>
                <mxCell id="tcUG_68Ii-Lz_5LL-RTe-20" value="Deck" style="swimlane;fontStyle=1;childLayout=stackLayout;horizontal=1;startSize=26;fillColor=none;horizontalStack=0;resizeParent=1;resizeParentMax=0;resizeLast=0;collapsible=1;marginBottom=0;" parent="1" vertex="1">
                    <mxGeometry x="480" y="360" width="160" height="110" as="geometry"/>
                </mxCell>
                <mxCell id="tcUG_68Ii-Lz_5LL-RTe-21" value="- cards_ingame: str&#10;" style="text;strokeColor=none;fillColor=none;align=left;verticalAlign=top;spacingLeft=4;spacingRight=4;overflow=hidden;rotatable=0;points=[[0,0.5],[1,0.5]];portConstraint=eastwest;" parent="tcUG_68Ii-Lz_5LL-RTe-20" vertex="1">
                    <mxGeometry y="26" width="160" height="26" as="geometry"/>
                </mxCell>
                <mxCell id="tcUG_68Ii-Lz_5LL-RTe-22" value="- cards_outgame: str" style="text;strokeColor=none;fillColor=none;align=left;verticalAlign=top;spacingLeft=4;spacingRight=4;overflow=hidden;rotatable=0;points=[[0,0.5],[1,0.5]];portConstraint=eastwest;" parent="tcUG_68Ii-Lz_5LL-RTe-20" vertex="1">
                    <mxGeometry y="52" width="160" height="32" as="geometry"/>
                </mxCell>
                <mxCell id="tcUG_68Ii-Lz_5LL-RTe-26" value="+ create_deck(): void" style="text;fillColor=none;align=left;verticalAlign=top;spacingLeft=4;spacingRight=4;overflow=hidden;rotatable=0;points=[[0,0.5],[1,0.5]];portConstraint=eastwest;shadow=0;strokeColor=#000000;" parent="tcUG_68Ii-Lz_5LL-RTe-20" vertex="1">
                    <mxGeometry y="84" width="160" height="26" as="geometry"/>
                </mxCell>
                <mxCell id="tcUG_68Ii-Lz_5LL-RTe-27" value="" style="endArrow=classic;html=1;" parent="1" edge="1">
                    <mxGeometry relative="1" as="geometry">
                        <mxPoint x="50" y="400" as="sourcePoint"/>
                        <mxPoint x="230" y="640" as="targetPoint"/>
                    </mxGeometry>
                </mxCell>
                <mxCell id="tcUG_68Ii-Lz_5LL-RTe-28" value="Father" style="edgeLabel;resizable=0;html=1;align=center;verticalAlign=middle;" parent="tcUG_68Ii-Lz_5LL-RTe-27" connectable="0" vertex="1">
                    <mxGeometry relative="1" as="geometry"/>
                </mxCell>
            </root>
        </mxGraphModel>
    </diagram>
</mxfile>